<svg width="26" height="25" viewBox="0 0 26 25" fill="none" xmlns="http://www.w3.org/2000/svg">
<path d="M8.57617 20.13C8.57617 20.2334 8.45727 20.3161 8.30736 20.3161C8.13677 20.3316 8.01787 20.2489 8.01787 20.13C8.01787 20.0266 8.13677 19.9439 8.28668 19.9439C8.44176 19.9284 8.57617 20.0111 8.57617 20.13ZM6.96846 19.8973C6.93228 20.0007 7.03567 20.1196 7.19075 20.1506C7.32516 20.2023 7.48024 20.1506 7.51126 20.0473C7.54227 19.9439 7.44405 19.825 7.28897 19.7784C7.15456 19.7423 7.00465 19.7939 6.96846 19.8973ZM9.25337 19.8095C9.10346 19.8456 9.00007 19.9439 9.01558 20.0628C9.03109 20.1662 9.16549 20.2334 9.32058 20.1972C9.47049 20.161 9.57388 20.0628 9.55837 19.9594C9.54286 19.8612 9.40329 19.7939 9.25337 19.8095ZM12.6549 0C5.48482 0 0 5.44346 0 12.6135C0 18.3465 3.6083 23.2523 8.76227 24.9789C9.42397 25.0978 9.65659 24.6894 9.65659 24.3534C9.65659 24.0329 9.64108 22.265 9.64108 21.1794C9.64108 21.1794 6.02245 21.9548 5.26253 19.6389C5.26253 19.6389 4.67321 18.1345 3.82542 17.7468C3.82542 17.7468 2.64161 16.9352 3.90813 16.9507C3.90813 16.9507 5.19533 17.0541 5.90355 18.2845C7.03567 20.2799 8.93287 19.7061 9.6721 19.3649C9.791 18.5378 10.127 17.964 10.4992 17.6228C7.60948 17.3023 4.69389 16.8835 4.69389 11.9105C4.69389 10.4889 5.08677 9.77549 5.91389 8.86566C5.77948 8.52965 5.34008 7.14422 6.04829 5.35558C7.12872 5.01957 9.61524 6.75134 9.61524 6.75134C10.6491 6.46185 11.7606 6.31194 12.8617 6.31194C13.9628 6.31194 15.0742 6.46185 16.1081 6.75134C16.1081 6.75134 18.5946 5.0144 19.6751 5.35558C20.3833 7.14939 19.9439 8.52965 19.8095 8.86566C20.6366 9.78066 21.1432 10.494 21.1432 11.9105C21.1432 16.899 18.0984 17.2971 15.2086 17.6228C15.6842 18.0312 16.0874 18.8066 16.0874 20.0214C16.0874 21.7635 16.0719 23.9192 16.0719 24.3431C16.0719 24.6791 16.3097 25.0875 16.9662 24.9686C22.1357 23.2523 25.6406 18.3465 25.6406 12.6135C25.6406 5.44346 19.825 0 12.6549 0ZM5.02474 17.8295C4.95753 17.8812 4.97304 18.0001 5.06092 18.0984C5.14364 18.1811 5.26253 18.2173 5.32974 18.1501C5.39694 18.0984 5.38143 17.9795 5.29355 17.8812C5.21084 17.7985 5.09194 17.7623 5.02474 17.8295ZM4.46643 17.4108C4.43025 17.478 4.48194 17.5607 4.58533 17.6124C4.66804 17.6641 4.77143 17.6486 4.80762 17.5762C4.84381 17.509 4.79211 17.4263 4.68872 17.3746C4.58533 17.3436 4.50262 17.3591 4.46643 17.4108ZM6.14135 19.2512C6.05863 19.3184 6.08965 19.4734 6.20855 19.5717C6.32745 19.6906 6.47736 19.7061 6.54456 19.6234C6.61177 19.5562 6.58075 19.4011 6.47736 19.3028C6.36363 19.1839 6.20855 19.1684 6.14135 19.2512ZM5.55202 18.4912C5.46931 18.5429 5.46931 18.6773 5.55202 18.7962C5.63474 18.9151 5.77431 18.9668 5.84152 18.9151C5.92423 18.8479 5.92423 18.7135 5.84152 18.5946C5.76914 18.4757 5.63474 18.424 5.55202 18.4912Z" fill="white"/>
</svg>
