<svg width="14" height="13" viewBox="0 0 14 13" fill="none" xmlns="http://www.w3.org/2000/svg">
<path d="M3.46455 12.4972H0.873053V4.15365H3.46455V12.4972ZM2.16741 3.01551C1.33891 3.01551 0.666626 2.32928 0.666626 1.50078C0.666626 0.672283 1.33891 0 2.16741 0C2.99591 0 3.66819 0.672283 3.66819 1.50078C3.66819 2.32928 2.99591 3.01551 2.16741 3.01551ZM13.1638 12.4972H10.5779V8.43562C10.5779 7.46764 10.5584 6.22629 9.23056 6.22629C7.88321 6.22629 7.67678 7.27795 7.67678 8.36588V12.4972H5.08807V4.15365H7.57357V5.29179H7.60983C7.95574 4.63624 8.80097 3.94443 10.0618 3.94443C12.684 3.94443 13.1666 5.67117 13.1666 7.91397V12.4972H13.1638Z" fill="#FF9A3D"/>
</svg>
