<svg width="16" height="14" viewBox="0 0 16 14" fill="none" xmlns="http://www.w3.org/2000/svg">
<path d="M13.8086 3.78189C13.8184 3.91861 13.8184 4.05535 13.8184 4.19206C13.8184 8.36196 10.6446 13.1667 4.84375 13.1667C3.05664 13.1667 1.39649 12.6491 0 11.7507C0.253916 11.78 0.498032 11.7897 0.761717 11.7897C2.2363 11.7897 3.59375 11.2917 4.67773 10.4421C3.29101 10.4128 2.1289 9.50457 1.7285 8.25456C1.92383 8.28384 2.11913 8.30338 2.32423 8.30338C2.60742 8.30338 2.89065 8.2643 3.1543 8.19597C1.70899 7.90298 0.624974 6.63346 0.624974 5.10026V5.06121C1.04488 5.29559 1.5332 5.44207 2.05074 5.46158C1.20113 4.89516 0.644513 3.92838 0.644513 2.83462C0.644513 2.24869 0.800734 1.71158 1.07419 1.24283C2.62693 3.15689 4.96093 4.40687 7.57809 4.54361C7.52927 4.30923 7.49996 4.06512 7.49996 3.82097C7.49996 2.08267 8.90622 0.666672 10.6543 0.666672C11.5625 0.666672 12.3828 1.04753 12.959 1.66277C13.6718 1.52605 14.3554 1.26237 14.9609 0.901048C14.7265 1.63349 14.2285 2.24872 13.5742 2.63932C14.209 2.57099 14.8242 2.39517 15.3906 2.15106C14.961 2.77603 14.4238 3.33265 13.8086 3.78189Z" fill="#FF9A3D"/>
</svg>
