<svg width="1027" height="511" viewBox="0 0 1027 511" fill="none" xmlns="http://www.w3.org/2000/svg">
<g filter="url(#filter0_d)">
<path d="M335.976 194L477.976 194L548.976 316.976L477.976 439.951L335.976 439.951L264.976 316.976L335.976 194Z" fill="#FF9900"/>
</g>
<path d="M381.719 398.324C378.839 398.324 376.811 397.472 375.635 395.768C374.459 394.04 373.871 391.664 373.871 388.64V378.344C373.871 375.152 374.447 372.728 375.599 371.072C376.751 369.416 378.791 368.588 381.719 368.588C384.335 368.588 386.207 369.296 387.335 370.712C388.487 372.128 389.063 374.216 389.063 376.976V379.28H385.211V377.228C385.211 375.884 385.151 374.852 385.031 374.132C384.911 373.412 384.599 372.836 384.095 372.404C383.615 371.972 382.835 371.756 381.755 371.756C380.651 371.756 379.823 371.996 379.271 372.476C378.743 372.932 378.395 373.58 378.227 374.42C378.059 375.236 377.975 376.34 377.975 377.732V389.288C377.975 390.776 378.095 391.94 378.335 392.78C378.575 393.62 378.959 394.22 379.487 394.58C380.039 394.94 380.795 395.12 381.755 395.12C382.787 395.12 383.555 394.892 384.059 394.436C384.563 393.98 384.875 393.356 384.995 392.564C385.139 391.772 385.211 390.692 385.211 389.324V387.164H389.063V389.324C389.063 392.228 388.511 394.46 387.407 396.02C386.327 397.556 384.431 398.324 381.719 398.324ZM399.814 398.324C397.366 398.324 395.494 397.568 394.198 396.056C392.926 394.544 392.218 392.468 392.074 389.828L395.674 388.856C395.794 390.728 396.154 392.24 396.754 393.392C397.378 394.544 398.398 395.12 399.814 395.12C400.87 395.12 401.662 394.832 402.19 394.256C402.742 393.656 403.018 392.804 403.018 391.7C403.018 390.5 402.766 389.504 402.262 388.712C401.758 387.92 400.954 387.044 399.85 386.084L394.954 381.764C393.97 380.9 393.25 379.976 392.794 378.992C392.362 377.984 392.146 376.76 392.146 375.32C392.146 373.184 392.758 371.528 393.982 370.352C395.206 369.176 396.874 368.588 398.986 368.588C401.29 368.588 403.03 369.2 404.206 370.424C405.382 371.648 406.09 373.544 406.33 376.112L402.874 377.048C402.754 375.344 402.418 374.036 401.866 373.124C401.338 372.188 400.378 371.72 398.986 371.72C397.954 371.72 397.162 371.996 396.61 372.548C396.058 373.076 395.782 373.868 395.782 374.924C395.782 375.788 395.926 376.52 396.214 377.12C396.502 377.696 396.994 378.284 397.69 378.884L402.622 383.204C403.894 384.332 404.902 385.556 405.646 386.876C406.414 388.196 406.798 389.696 406.798 391.376C406.798 393.512 406.15 395.204 404.854 396.452C403.558 397.7 401.878 398.324 399.814 398.324ZM416.83 398.324C414.382 398.324 412.51 397.568 411.214 396.056C409.942 394.544 409.234 392.468 409.09 389.828L412.69 388.856C412.81 390.728 413.17 392.24 413.77 393.392C414.394 394.544 415.414 395.12 416.83 395.12C417.886 395.12 418.678 394.832 419.206 394.256C419.758 393.656 420.034 392.804 420.034 391.7C420.034 390.5 419.782 389.504 419.278 388.712C418.774 387.92 417.97 387.044 416.866 386.084L411.97 381.764C410.986 380.9 410.266 379.976 409.81 378.992C409.378 377.984 409.162 376.76 409.162 375.32C409.162 373.184 409.774 371.528 410.998 370.352C412.222 369.176 413.89 368.588 416.002 368.588C418.306 368.588 420.046 369.2 421.222 370.424C422.398 371.648 423.106 373.544 423.346 376.112L419.89 377.048C419.77 375.344 419.434 374.036 418.882 373.124C418.354 372.188 417.394 371.72 416.002 371.72C414.97 371.72 414.178 371.996 413.626 372.548C413.074 373.076 412.798 373.868 412.798 374.924C412.798 375.788 412.942 376.52 413.23 377.12C413.518 377.696 414.01 378.284 414.706 378.884L419.638 383.204C420.91 384.332 421.918 385.556 422.662 386.876C423.43 388.196 423.814 389.696 423.814 391.376C423.814 393.512 423.166 395.204 421.87 396.452C420.574 397.7 418.894 398.324 416.83 398.324ZM433.269 398.324C430.941 398.324 429.165 397.676 427.941 396.38C426.741 395.06 426.141 393.212 426.141 390.836V389.864H429.957V390.512C430.005 392 430.257 393.14 430.713 393.932C431.193 394.724 432.045 395.12 433.269 395.12C434.565 395.12 435.441 394.676 435.897 393.788C436.377 392.876 436.617 391.532 436.617 389.756C436.617 388.124 436.317 386.852 435.717 385.94C435.117 385.004 434.145 384.488 432.801 384.392C432.705 384.368 432.525 384.356 432.261 384.356V380.504H432.765C434.133 380.456 435.117 380.096 435.717 379.424C436.317 378.752 436.617 377.636 436.617 376.076C436.617 374.636 436.377 373.556 435.897 372.836C435.417 372.092 434.553 371.72 433.305 371.72C432.057 371.72 431.193 372.116 430.713 372.908C430.257 373.7 430.005 374.864 429.957 376.4V377.012H426.141V376.04C426.141 373.664 426.741 371.828 427.941 370.532C429.165 369.236 430.953 368.588 433.305 368.588C435.657 368.588 437.433 369.248 438.633 370.568C439.857 371.864 440.469 373.7 440.469 376.076C440.469 377.78 440.097 379.172 439.353 380.252C438.609 381.332 437.589 382.064 436.293 382.448C437.613 382.856 438.633 383.684 439.353 384.932C440.097 386.18 440.469 387.788 440.469 389.756C440.469 392.468 439.881 394.58 438.705 396.092C437.553 397.58 435.741 398.324 433.269 398.324Z" fill="#EDEBEB"/>
<g clip-path="url(#clip0)">
<path d="M464 221.837L453.614 338.97L406.93 352L360.375 338.989L350 221.837H464Z" fill="#264DE4"/>
<path d="M444.723 331.512L453.598 231.416H407V342.041L444.723 331.512Z" fill="#2965F1"/>
<path d="M373.784 274.866L375.063 289.234H407V274.866H373.784Z" fill="#EBEBEB"/>
<path d="M407 245.784H406.951H371.214L372.511 260.153H407V245.784Z" fill="#EBEBEB"/>
<path d="M407 327.13V312.181L406.937 312.198L391.043 307.877L390.027 296.418H382.304H375.701L377.7 318.978L406.934 327.149L407 327.13Z" fill="#EBEBEB"/>
<path d="M424.525 289.234L422.868 307.868L406.951 312.193V327.142L436.208 318.978L436.423 316.551L439.777 278.724L440.125 274.866L442.701 245.784H406.951V260.153H427.061L425.762 274.866H406.951V289.234H424.525Z" fill="white"/>
</g>
<g filter="url(#filter1_d)">
<path d="M761.976 194L903.976 194L974.976 316.976L903.976 439.951L761.976 439.951L690.976 316.976L761.976 194Z" fill="#757575"/>
</g>
<path d="M783.483 368.84H789.351C792.303 368.84 794.463 369.452 795.831 370.676C797.223 371.876 797.919 373.844 797.919 376.58C797.919 380.324 796.719 382.592 794.319 383.384L798.459 398H794.535L790.719 384.32H787.551V398H783.483V368.84ZM789.099 381.404C790.851 381.404 792.099 381.056 792.843 380.36C793.611 379.664 793.995 378.404 793.995 376.58C793.995 375.38 793.863 374.444 793.599 373.772C793.335 373.076 792.867 372.572 792.195 372.26C791.523 371.924 790.575 371.756 789.351 371.756H787.551V381.404H789.099ZM807.587 398.288C805.979 398.288 804.731 397.988 803.843 397.388C802.955 396.764 802.331 395.852 801.971 394.652C801.611 393.452 801.431 391.892 801.431 389.972V385.22C801.431 382.34 801.875 380.24 802.763 378.92C803.675 377.576 805.283 376.904 807.587 376.904C809.267 376.904 810.527 377.252 811.367 377.948C812.231 378.644 812.795 379.628 813.059 380.9C813.347 382.148 813.491 383.84 813.491 385.976V387.668H805.283V391.844C805.283 393.116 805.463 394.04 805.823 394.616C806.207 395.168 806.807 395.444 807.623 395.444C808.439 395.444 808.991 395.168 809.279 394.616C809.567 394.04 809.711 393.176 809.711 392.024V390.764H813.455V391.556C813.455 393.74 812.987 395.408 812.051 396.56C811.115 397.712 809.627 398.288 807.587 398.288ZM809.711 385.58V383.708C809.711 382.292 809.567 381.284 809.279 380.684C809.015 380.06 808.439 379.748 807.551 379.748C806.927 379.748 806.447 379.892 806.111 380.18C805.799 380.468 805.583 380.948 805.463 381.62C805.343 382.268 805.283 383.216 805.283 384.464V385.58H809.711ZM820.723 398.288C819.931 398.288 819.211 398.06 818.563 397.604C817.939 397.148 817.447 396.548 817.087 395.804C816.727 395.06 816.547 394.28 816.547 393.464C816.547 391.832 816.895 390.512 817.591 389.504C818.287 388.472 819.175 387.656 820.255 387.056C821.335 386.456 822.835 385.772 824.755 385.004V383.528C824.755 382.16 824.611 381.2 824.323 380.648C824.059 380.072 823.507 379.784 822.667 379.784C821.203 379.784 820.471 380.768 820.471 382.736V383.78L816.655 383.636C816.703 381.332 817.231 379.64 818.239 378.56C819.247 377.456 820.807 376.904 822.919 376.904C824.911 376.904 826.351 377.456 827.239 378.56C828.151 379.64 828.607 381.284 828.607 383.492V392.996C828.607 394.556 828.727 396.224 828.967 398H825.439C825.175 396.632 825.007 395.612 824.935 394.94C824.647 395.876 824.143 396.668 823.423 397.316C822.727 397.964 821.827 398.288 820.723 398.288ZM822.235 394.976C822.739 394.976 823.231 394.784 823.711 394.4C824.191 393.992 824.539 393.608 824.755 393.248V387.344C823.723 387.92 822.919 388.424 822.343 388.856C821.791 389.264 821.323 389.744 820.939 390.296C820.579 390.848 820.399 391.508 820.399 392.276C820.399 393.14 820.555 393.812 820.867 394.292C821.179 394.748 821.635 394.976 822.235 394.976ZM837.995 398.288C836.363 398.288 835.103 397.964 834.215 397.316C833.327 396.644 832.715 395.72 832.379 394.544C832.067 393.344 831.911 391.832 831.911 390.008V385.22C831.911 383.348 832.067 381.812 832.379 380.612C832.715 379.412 833.327 378.5 834.215 377.876C835.103 377.228 836.363 376.904 837.995 376.904C839.483 376.904 840.635 377.144 841.451 377.624C842.291 378.104 842.867 378.824 843.179 379.784C843.515 380.72 843.683 381.944 843.683 383.456V384.68H840.191V383.42C840.191 382.052 840.035 381.104 839.723 380.576C839.435 380.024 838.871 379.748 838.031 379.748C837.383 379.748 836.903 379.892 836.591 380.18C836.279 380.468 836.063 380.936 835.943 381.584C835.823 382.232 835.763 383.18 835.763 384.428V390.98C835.763 392.18 835.835 393.104 835.979 393.752C836.123 394.376 836.351 394.82 836.663 395.084C836.999 395.324 837.467 395.444 838.067 395.444C838.955 395.444 839.531 395.156 839.795 394.58C840.059 393.98 840.191 393.068 840.191 391.844V390.152H843.683V391.592C843.683 393.848 843.263 395.528 842.423 396.632C841.607 397.736 840.131 398.288 837.995 398.288ZM852.652 398.288C849.652 398.288 848.152 396.632 848.152 393.32V379.748H845.956V377.192H848.152V371.108H852.004V377.192H855.352V379.748H852.004V393.068C852.004 393.908 852.136 394.496 852.4 394.832C852.664 395.168 853.168 395.336 853.912 395.336C854.392 395.336 854.86 395.3 855.316 395.228V398.072C854.356 398.216 853.468 398.288 852.652 398.288ZM858.002 393.716H861.854V398H858.002V393.716ZM865.507 370.064H869.395V374.096H865.507V370.064ZM864.319 403.256C863.383 403.256 862.723 403.172 862.339 403.004V400.232C862.843 400.304 863.179 400.34 863.347 400.34C864.139 400.34 864.691 400.112 865.003 399.656C865.339 399.224 865.507 398.612 865.507 397.82V377.192H869.359V398.216C869.359 399.848 868.915 401.096 868.027 401.96C867.139 402.824 865.903 403.256 864.319 403.256ZM878.088 398.288C876.408 398.288 875.04 397.76 873.984 396.704C872.952 395.648 872.364 394.232 872.22 392.456L875.424 391.484C875.616 392.828 875.94 393.824 876.396 394.472C876.876 395.12 877.548 395.444 878.412 395.444C879.084 395.444 879.6 395.252 879.96 394.868C880.344 394.46 880.536 393.92 880.536 393.248C880.536 392.648 880.404 392.108 880.14 391.628C879.876 391.148 879.444 390.656 878.844 390.152L875.28 387.092C874.464 386.396 873.828 385.664 873.372 384.896C872.94 384.104 872.724 383.144 872.724 382.016C872.724 380.408 873.204 379.16 874.164 378.272C875.124 377.36 876.432 376.904 878.088 376.904C879.672 376.904 880.908 377.42 881.796 378.452C882.708 379.46 883.236 380.768 883.38 382.376L880.788 383.348C880.62 382.172 880.344 381.284 879.96 380.684C879.576 380.06 879 379.748 878.232 379.748C877.608 379.748 877.104 379.952 876.72 380.36C876.36 380.768 876.18 381.272 876.18 381.872C876.18 382.64 876.528 383.336 877.224 383.96L880.896 387.344C881.832 388.208 882.552 389.06 883.056 389.9C883.584 390.74 883.848 391.76 883.848 392.96C883.848 394.688 883.332 396.008 882.3 396.92C881.268 397.832 879.864 398.288 878.088 398.288Z" fill="#EDEBEB"/>
<path d="M906.23 292.154C906.23 282.382 894 273.121 875.248 267.377C879.575 248.254 877.652 233.039 869.177 228.168C867.224 227.025 864.94 226.484 862.446 226.484V233.189C863.828 233.189 864.94 233.46 865.872 233.971C869.959 236.316 871.732 245.247 870.349 256.733C870.019 259.559 869.478 262.536 868.817 265.573C862.927 264.13 856.496 263.017 849.734 262.296C845.677 256.733 841.47 251.681 837.233 247.261C847.03 238.15 856.225 233.159 862.476 233.159V226.454C854.212 226.454 843.394 232.347 832.455 242.571C821.516 232.407 810.698 226.574 802.434 226.574V233.279C808.654 233.279 817.88 238.241 827.677 247.291C823.47 251.711 819.263 256.733 815.266 262.296C808.474 263.017 802.043 264.13 796.153 265.603C795.462 262.596 794.951 259.68 794.591 256.883C793.178 245.397 794.921 236.467 798.978 234.091C799.88 233.55 801.052 233.309 802.434 233.309V226.604C799.91 226.604 797.626 227.145 795.642 228.288C787.198 233.159 785.305 248.344 789.662 267.407C770.97 273.181 758.8 282.412 758.8 292.154C758.8 301.926 771.031 311.188 789.782 316.931C785.455 336.055 787.378 351.27 795.853 356.141C797.806 357.283 800.09 357.825 802.614 357.825C810.878 357.825 821.697 351.931 832.635 341.708C843.574 351.871 854.392 357.704 862.656 357.704C865.181 357.704 867.464 357.163 869.448 356.02C877.892 351.149 879.785 335.964 875.428 316.901C894.06 311.158 906.23 301.896 906.23 292.154ZM867.104 272.098C865.992 275.977 864.61 279.976 863.047 283.975C861.815 281.57 860.523 279.164 859.11 276.759C857.728 274.353 856.255 272.008 854.783 269.723C859.05 270.354 863.167 271.136 867.104 272.098ZM853.34 304.122C850.996 308.181 848.592 312.03 846.098 315.608C841.62 315.999 837.083 316.209 832.515 316.209C827.977 316.209 823.44 315.999 818.992 315.638C816.498 312.06 814.064 308.241 811.72 304.212C809.436 300.273 807.362 296.274 805.469 292.244C807.332 288.215 809.436 284.186 811.69 280.247C814.034 276.188 816.438 272.339 818.932 268.761C823.41 268.37 827.947 268.159 832.515 268.159C837.053 268.159 841.59 268.37 846.038 268.73C848.532 272.309 850.966 276.127 853.31 280.157C855.594 284.096 857.668 288.095 859.561 292.124C857.668 296.153 855.594 300.182 853.34 304.122ZM863.047 300.213C864.67 304.242 866.052 308.271 867.194 312.18C863.257 313.142 859.11 313.954 854.813 314.585C856.285 312.27 857.758 309.895 859.14 307.459C860.523 305.054 861.815 302.618 863.047 300.213ZM832.575 332.296C829.78 329.409 826.986 326.192 824.221 322.674C826.926 322.794 829.69 322.884 832.485 322.884C835.31 322.884 838.105 322.824 840.839 322.674C838.135 326.192 835.34 329.409 832.575 332.296ZM810.217 314.585C805.95 313.954 801.833 313.172 797.896 312.21C799.008 308.331 800.39 304.332 801.953 300.333C803.185 302.738 804.477 305.144 805.89 307.549C807.302 309.955 808.745 312.3 810.217 314.585ZM832.425 252.012C835.22 254.899 838.014 258.116 840.779 261.634C838.074 261.514 835.31 261.424 832.515 261.424C829.69 261.424 826.895 261.484 824.161 261.634C826.865 258.116 829.66 254.899 832.425 252.012ZM810.187 269.723C808.715 272.038 807.242 274.413 805.86 276.849C804.477 279.255 803.185 281.66 801.953 284.066C800.33 280.036 798.948 276.007 797.806 272.098C801.743 271.166 805.89 270.354 810.187 269.723ZM782.991 307.369C772.353 302.829 765.471 296.875 765.471 292.154C765.471 287.433 772.353 281.45 782.991 276.939C785.575 275.827 788.4 274.834 791.315 273.902C793.028 279.796 795.282 285.93 798.076 292.214C795.312 298.469 793.088 304.573 791.405 310.436C788.43 309.504 785.605 308.482 782.991 307.369ZM799.158 350.337C795.071 347.992 793.298 339.062 794.681 327.575C795.011 324.749 795.552 321.772 796.213 318.735C802.103 320.178 808.534 321.291 815.296 322.012C819.353 327.575 823.56 332.627 827.797 337.047C818 346.158 808.805 351.149 802.554 351.149C801.202 351.119 800.06 350.849 799.158 350.337ZM870.439 327.425C871.852 338.911 870.109 347.842 866.052 350.217C865.15 350.758 863.978 350.999 862.596 350.999C856.376 350.999 847.15 346.038 837.353 336.987C841.56 332.567 845.768 327.545 849.764 321.982C856.556 321.261 862.987 320.148 868.877 318.675C869.568 321.712 870.109 324.628 870.439 327.425ZM882.009 307.369C879.425 308.482 876.6 309.474 873.685 310.406C871.972 304.512 869.718 298.378 866.924 292.094C869.688 285.84 871.912 279.736 873.595 273.872C876.57 274.804 879.395 275.827 882.039 276.939C892.677 281.48 899.559 287.433 899.559 292.154C899.529 296.875 892.647 302.859 882.009 307.369Z" fill="#61DAFB"/>
<path d="M832.485 305.896C840.07 305.896 846.218 299.744 846.218 292.155C846.218 284.565 840.07 278.413 832.485 278.413C824.9 278.413 818.752 284.565 818.752 292.155C818.752 299.744 824.9 305.896 832.485 305.896Z" fill="#61DAFB"/>
<g filter="url(#filter2_d)">
<path d="M548.976 71L690.976 71L761.976 193.976L690.976 316.951L548.976 316.951L477.976 193.976L548.976 71Z" fill="#1F1F1F"/>
</g>
<path d="M553.209 272.768C554.433 272.768 555.333 272.66 555.909 272.444C556.509 272.204 556.917 271.784 557.133 271.184C557.349 270.56 557.457 269.612 557.457 268.34V245.84H561.489V268.412C561.489 270.164 561.309 271.568 560.949 272.624C560.589 273.656 559.941 274.424 559.005 274.928C558.093 275.432 556.809 275.684 555.153 275.684H553.209V272.768ZM569.473 275.288C568.681 275.288 567.961 275.06 567.313 274.604C566.689 274.148 566.197 273.548 565.837 272.804C565.477 272.06 565.297 271.28 565.297 270.464C565.297 268.832 565.645 267.512 566.341 266.504C567.037 265.472 567.925 264.656 569.005 264.056C570.085 263.456 571.585 262.772 573.505 262.004V260.528C573.505 259.16 573.361 258.2 573.073 257.648C572.809 257.072 572.257 256.784 571.417 256.784C569.953 256.784 569.221 257.768 569.221 259.736V260.78L565.405 260.636C565.453 258.332 565.981 256.64 566.989 255.56C567.997 254.456 569.557 253.904 571.669 253.904C573.661 253.904 575.101 254.456 575.989 255.56C576.901 256.64 577.357 258.284 577.357 260.492V269.996C577.357 271.556 577.477 273.224 577.717 275H574.189C573.925 273.632 573.757 272.612 573.685 271.94C573.397 272.876 572.893 273.668 572.173 274.316C571.477 274.964 570.577 275.288 569.473 275.288ZM570.985 271.976C571.489 271.976 571.981 271.784 572.461 271.4C572.941 270.992 573.289 270.608 573.505 270.248V264.344C572.473 264.92 571.669 265.424 571.093 265.856C570.541 266.264 570.073 266.744 569.689 267.296C569.329 267.848 569.149 268.508 569.149 269.276C569.149 270.14 569.305 270.812 569.617 271.292C569.929 271.748 570.385 271.976 570.985 271.976ZM579.653 254.192H583.541L586.097 270.932L588.689 254.192H592.433L588.473 275H583.757L579.653 254.192ZM598.653 275.288C597.861 275.288 597.141 275.06 596.493 274.604C595.869 274.148 595.377 273.548 595.017 272.804C594.657 272.06 594.477 271.28 594.477 270.464C594.477 268.832 594.825 267.512 595.521 266.504C596.217 265.472 597.105 264.656 598.185 264.056C599.265 263.456 600.765 262.772 602.685 262.004V260.528C602.685 259.16 602.541 258.2 602.253 257.648C601.989 257.072 601.437 256.784 600.597 256.784C599.133 256.784 598.401 257.768 598.401 259.736V260.78L594.585 260.636C594.633 258.332 595.161 256.64 596.169 255.56C597.177 254.456 598.737 253.904 600.849 253.904C602.841 253.904 604.281 254.456 605.169 255.56C606.081 256.64 606.537 258.284 606.537 260.492V269.996C606.537 271.556 606.657 273.224 606.897 275H603.369C603.105 273.632 602.937 272.612 602.865 271.94C602.577 272.876 602.073 273.668 601.353 274.316C600.657 274.964 599.757 275.288 598.653 275.288ZM600.165 271.976C600.669 271.976 601.161 271.784 601.641 271.4C602.121 270.992 602.469 270.608 602.685 270.248V264.344C601.653 264.92 600.849 265.424 600.273 265.856C599.721 266.264 599.253 266.744 598.869 267.296C598.509 267.848 598.329 268.508 598.329 269.276C598.329 270.14 598.485 270.812 598.797 271.292C599.109 271.748 599.565 271.976 600.165 271.976ZM617.437 275.324C614.989 275.324 613.117 274.568 611.821 273.056C610.549 271.544 609.841 269.468 609.697 266.828L613.297 265.856C613.417 267.728 613.777 269.24 614.377 270.392C615.001 271.544 616.021 272.12 617.437 272.12C618.493 272.12 619.285 271.832 619.813 271.256C620.365 270.656 620.641 269.804 620.641 268.7C620.641 267.5 620.389 266.504 619.885 265.712C619.381 264.92 618.577 264.044 617.473 263.084L612.577 258.764C611.593 257.9 610.873 256.976 610.417 255.992C609.985 254.984 609.769 253.76 609.769 252.32C609.769 250.184 610.381 248.528 611.605 247.352C612.829 246.176 614.497 245.588 616.609 245.588C618.913 245.588 620.653 246.2 621.829 247.424C623.005 248.648 623.713 250.544 623.953 253.112L620.497 254.048C620.377 252.344 620.041 251.036 619.489 250.124C618.961 249.188 618.001 248.72 616.609 248.72C615.577 248.72 614.785 248.996 614.233 249.548C613.681 250.076 613.405 250.868 613.405 251.924C613.405 252.788 613.549 253.52 613.837 254.12C614.125 254.696 614.617 255.284 615.313 255.884L620.245 260.204C621.517 261.332 622.525 262.556 623.269 263.876C624.037 265.196 624.421 266.696 624.421 268.376C624.421 270.512 623.773 272.204 622.477 273.452C621.181 274.7 619.501 275.324 617.437 275.324ZM632.941 275.288C631.309 275.288 630.049 274.964 629.161 274.316C628.273 273.644 627.661 272.72 627.325 271.544C627.013 270.344 626.857 268.832 626.857 267.008V262.22C626.857 260.348 627.013 258.812 627.325 257.612C627.661 256.412 628.273 255.5 629.161 254.876C630.049 254.228 631.309 253.904 632.941 253.904C634.429 253.904 635.581 254.144 636.397 254.624C637.237 255.104 637.813 255.824 638.125 256.784C638.461 257.72 638.629 258.944 638.629 260.456V261.68H635.137V260.42C635.137 259.052 634.981 258.104 634.669 257.576C634.381 257.024 633.817 256.748 632.977 256.748C632.329 256.748 631.849 256.892 631.537 257.18C631.225 257.468 631.009 257.936 630.889 258.584C630.769 259.232 630.709 260.18 630.709 261.428V267.98C630.709 269.18 630.781 270.104 630.925 270.752C631.069 271.376 631.297 271.82 631.609 272.084C631.945 272.324 632.413 272.444 633.013 272.444C633.901 272.444 634.477 272.156 634.741 271.58C635.005 270.98 635.137 270.068 635.137 268.844V267.152H638.629V268.592C638.629 270.848 638.209 272.528 637.369 273.632C636.553 274.736 635.077 275.288 632.941 275.288ZM642.161 254.192H646.013V257.144C646.733 255.968 647.465 255.14 648.209 254.66C648.977 254.18 649.781 253.94 650.621 253.94C650.837 253.94 651.041 253.952 651.233 253.976V258.224C650.465 257.936 649.757 257.792 649.109 257.792C648.485 257.792 647.921 257.948 647.417 258.26C646.937 258.548 646.469 259.064 646.013 259.808V275H642.161V254.192ZM653.872 247.064H657.724V251.096H653.872V247.064ZM653.872 254.192H657.724V275H653.872V254.192ZM661.846 254.192H665.698V255.848C666.826 254.552 668.146 253.904 669.658 253.904C671.554 253.904 672.814 254.72 673.438 256.352C674.086 257.96 674.41 259.748 674.41 261.716V266.756C674.41 269.3 674.014 271.364 673.222 272.948C672.454 274.508 671.122 275.288 669.226 275.288C668.002 275.288 666.826 274.676 665.698 273.452V281.84H661.846V254.192ZM668.47 272.264C669.358 272.264 669.922 271.82 670.162 270.932C670.426 270.02 670.558 268.628 670.558 266.756V261.716C670.558 260.18 670.414 259.004 670.126 258.188C669.838 257.348 669.238 256.928 668.326 256.928C667.438 256.928 666.562 257.288 665.698 258.008V271.328C666.538 271.952 667.462 272.264 668.47 272.264ZM683.457 275.288C680.457 275.288 678.957 273.632 678.957 270.32V256.748H676.761V254.192H678.957V248.108H682.809V254.192H686.157V256.748H682.809V270.068C682.809 270.908 682.941 271.496 683.205 271.832C683.469 272.168 683.973 272.336 684.717 272.336C685.197 272.336 685.665 272.3 686.121 272.228V275.072C685.161 275.216 684.273 275.288 683.457 275.288Z" fill="#EDEBEB"/>
<path d="M680 109H560V229H680V109Z" fill="#F7DF1E"/>
<path d="M640.61 202.75C643.027 206.697 646.171 209.598 651.733 209.598C656.406 209.598 659.39 207.263 659.39 204.036C659.39 200.169 656.324 198.8 651.181 196.55L648.362 195.341C640.225 191.874 634.819 187.531 634.819 178.35C634.819 169.893 641.263 163.455 651.333 163.455C658.503 163.455 663.657 165.95 667.371 172.484L658.59 178.122C656.657 174.655 654.571 173.289 651.333 173.289C648.03 173.289 645.937 175.385 645.937 178.122C645.937 181.505 648.032 182.874 652.87 184.969L655.69 186.177C665.27 190.286 670.68 194.474 670.68 203.891C670.68 214.044 662.705 219.606 651.994 219.606C641.522 219.606 634.756 214.615 631.446 208.074L640.61 202.75ZM600.775 203.727C602.547 206.87 604.158 209.527 608.032 209.527C611.737 209.527 614.074 208.078 614.074 202.442V164.099H625.35V202.594C625.35 214.27 618.505 219.585 608.512 219.585C599.484 219.585 594.255 214.912 591.596 209.285L600.775 203.727Z" fill="black"/>
<g filter="url(#filter3_d)">
<path d="M122.976 71L264.976 71L335.976 193.976L264.976 316.951L122.976 316.951L51.9756 193.976L122.976 71Z" fill="#757575"/>
</g>
<path d="M147.027 215.797L136.617 99H251.129L240.719 215.797L193.746 229" fill="#E34F26"/>
<path d="M194 218.844L231.832 208.434L240.719 108.395H194" fill="#EF652A"/>
<path d="M194 151.812H174.957L173.688 137.086H194V122.867H193.746H157.945L158.199 126.676L161.754 166.285H194V151.812ZM194 189.137H193.746L177.75 184.82L176.734 173.395H169.117H162.516L164.293 195.992L193.746 204.117H194V189.137Z" fill="#EBEBEB"/>
<path d="M193.746 151.812V166.285H211.52L209.742 184.82L193.746 189.137V204.117L223.199 195.992L223.453 193.453L226.754 155.621L227.262 151.812H223.199H193.746ZM193.746 122.867V131.754V137.086H228.531L228.785 134.039L229.547 126.676L229.801 122.867H193.746Z" fill="white"/>
<path d="M151.145 245.84H155.213V258.44H162.701V245.84H166.769V275H162.701V261.356H155.213V275H151.145V245.84ZM174.529 248.864H169.597V245.84H183.385V248.864H178.597V275H174.529V248.864ZM186.664 245.84H190.66L195.808 269.492L200.992 245.84H204.952L205.492 275H202.216L201.892 253.832L196.96 275H194.656L189.76 253.832L189.436 275H186.124L186.664 245.84ZM209.961 245.84H214.029V272.084H221.481V275H209.961V245.84ZM230.75 275.288C228.23 275.288 226.418 274.58 225.314 273.164C224.234 271.724 223.694 269.612 223.694 266.828H227.546C227.546 268.46 227.762 269.768 228.194 270.752C228.65 271.736 229.526 272.228 230.822 272.228C231.806 272.228 232.538 271.94 233.018 271.364C233.498 270.788 233.798 270.032 233.918 269.096C234.062 268.136 234.134 266.864 234.134 265.28C234.134 263.816 234.05 262.652 233.882 261.788C233.738 260.9 233.426 260.228 232.946 259.772C232.49 259.292 231.794 259.052 230.858 259.052C230.114 259.052 229.454 259.28 228.878 259.736C228.326 260.192 227.906 260.768 227.618 261.464H224.342V245.84H236.906V249.692H227.834L227.582 257.756C228.614 256.676 230.018 256.136 231.794 256.136C234.026 256.136 235.61 256.904 236.546 258.44C237.506 259.952 237.986 262.064 237.986 264.776C237.986 268.088 237.446 270.668 236.366 272.516C235.286 274.364 233.414 275.288 230.75 275.288Z" fill="#EDEBEB"/>
<defs>
<filter id="filter0_d" x="254.976" y="190" width="304" height="265.951" filterUnits="userSpaceOnUse" color-interpolation-filters="sRGB">
<feFlood flood-opacity="0" result="BackgroundImageFix"/>
<feColorMatrix in="SourceAlpha" type="matrix" values="0 0 0 0 0 0 0 0 0 0 0 0 0 0 0 0 0 0 127 0"/>
<feOffset dy="6"/>
<feGaussianBlur stdDeviation="5"/>
<feColorMatrix type="matrix" values="0 0 0 0 0 0 0 0 0 0 0 0 0 0 0 0 0 0 1 0"/>
<feBlend mode="normal" in2="BackgroundImageFix" result="effect1_dropShadow"/>
<feBlend mode="normal" in="SourceGraphic" in2="effect1_dropShadow" result="shape"/>
</filter>
<filter id="filter1_d" x="680.976" y="190" width="304" height="265.951" filterUnits="userSpaceOnUse" color-interpolation-filters="sRGB">
<feFlood flood-opacity="0" result="BackgroundImageFix"/>
<feColorMatrix in="SourceAlpha" type="matrix" values="0 0 0 0 0 0 0 0 0 0 0 0 0 0 0 0 0 0 127 0"/>
<feOffset dy="6"/>
<feGaussianBlur stdDeviation="5"/>
<feColorMatrix type="matrix" values="0 0 0 0 0 0 0 0 0 0 0 0 0 0 0 0 0 0 1 0"/>
<feBlend mode="normal" in2="BackgroundImageFix" result="effect1_dropShadow"/>
<feBlend mode="normal" in="SourceGraphic" in2="effect1_dropShadow" result="shape"/>
</filter>
<filter id="filter2_d" x="467.976" y="67" width="304" height="265.951" filterUnits="userSpaceOnUse" color-interpolation-filters="sRGB">
<feFlood flood-opacity="0" result="BackgroundImageFix"/>
<feColorMatrix in="SourceAlpha" type="matrix" values="0 0 0 0 0 0 0 0 0 0 0 0 0 0 0 0 0 0 127 0"/>
<feOffset dy="6"/>
<feGaussianBlur stdDeviation="5"/>
<feColorMatrix type="matrix" values="0 0 0 0 0 0 0 0 0 0 0 0 0 0 0 0 0 0 1 0"/>
<feBlend mode="normal" in2="BackgroundImageFix" result="effect1_dropShadow"/>
<feBlend mode="normal" in="SourceGraphic" in2="effect1_dropShadow" result="shape"/>
</filter>
<filter id="filter3_d" x="41.9756" y="67" width="304" height="265.951" filterUnits="userSpaceOnUse" color-interpolation-filters="sRGB">
<feFlood flood-opacity="0" result="BackgroundImageFix"/>
<feColorMatrix in="SourceAlpha" type="matrix" values="0 0 0 0 0 0 0 0 0 0 0 0 0 0 0 0 0 0 127 0"/>
<feOffset dy="6"/>
<feGaussianBlur stdDeviation="5"/>
<feColorMatrix type="matrix" values="0 0 0 0 0 0 0 0 0 0 0 0 0 0 0 0 0 0 1 0"/>
<feBlend mode="normal" in2="BackgroundImageFix" result="effect1_dropShadow"/>
<feBlend mode="normal" in="SourceGraphic" in2="effect1_dropShadow" result="shape"/>
</filter>
<clipPath id="clip0">
<rect width="114" height="162" fill="white" transform="translate(350 190)"/>
</clipPath>
</defs>
</svg>
