<svg width="83" height="83" viewBox="0 0 83 83" fill="none" xmlns="http://www.w3.org/2000/svg">
<path d="M79.2563 13.6172H62.25C61.5781 13.6172 61.0342 14.1611 61.0342 14.833C61.0342 15.5049 61.5781 16.0488 62.25 16.0488H79.2563C79.9801 16.0488 80.5684 16.6371 80.5684 17.3609V64.1801C80.5684 64.9039 79.9801 65.4922 79.2563 65.4922H3.74371C3.01992 65.4922 2.43164 64.9039 2.43164 64.1801V17.3609C2.43164 16.6371 3.01992 16.0488 3.74371 16.0488H30.4563V18.4805H6.0791C5.40723 18.4805 4.86328 19.0244 4.86328 19.6963V51.8212C4.86328 52.4924 5.40723 53.037 6.0791 53.037C6.75097 53.037 7.29492 52.4924 7.29492 51.8212V20.9121H30.4563V27.4345L25.2511 29.9212C24.8357 30.12 24.5596 30.5494 24.5596 31.0186V50.8466C24.5596 51.3152 24.8287 51.742 25.2511 51.944L40.9757 59.4568C41.3164 59.617 41.7007 59.6088 42.0243 59.4568L50.8643 55.2331C51.4704 54.9437 51.7268 54.2174 51.4374 53.612C51.148 53.006 50.4211 52.7495 49.8157 53.0389L42.7158 56.4312V39.2976L56.0088 32.9468V50.0804L54.2028 50.9429C53.5968 51.2323 53.3403 51.9586 53.6297 52.564C53.9191 53.17 54.6454 53.4264 55.2508 53.137L57.7489 51.944C58.1713 51.742 58.4404 51.3152 58.4404 50.8466V31.0186C58.4404 30.5551 58.1707 30.1232 57.7489 29.9212L52.5437 27.4345V20.9121H75.7051V60.6289H7.29492V57.0087C7.29492 56.3368 6.75097 55.7929 6.0791 55.7929C5.40723 55.7929 4.86328 56.3368 4.86328 57.0087V61.8447C4.86328 62.5166 5.40723 63.0605 6.0791 63.0605H76.9209C77.5928 63.0605 78.1367 62.5166 78.1367 61.8447V19.6963C78.1367 19.0244 77.5928 18.4805 76.9209 18.4805H52.5437V16.0488H57.0625C57.7344 16.0488 58.2783 15.5049 58.2783 14.833C58.2783 14.1611 57.7344 13.6172 57.0625 13.6172H52.5437V11.1855H63.4456C64.1174 11.1855 64.6614 10.6416 64.6614 9.96973V7.08595C66.0767 6.58379 67.093 5.23246 67.093 3.64746C67.093 1.63629 65.4567 0 63.4456 0C61.4344 0 59.7981 1.63629 59.7981 3.64746C59.7981 5.23246 60.8144 6.58379 62.2297 7.08595V8.75391H51.3279C50.656 8.75391 50.1121 9.29786 50.1121 9.96973V13.6172H42.7158V7.08595C44.1311 6.58379 45.1475 5.23246 45.1475 3.64746C45.1475 1.63629 43.5112 0 41.5 0C39.4888 0 37.8525 1.63629 37.8525 3.64746C37.8525 5.23246 38.8689 6.58379 40.2842 7.08595V13.6172H32.8879V9.96973C32.8879 9.29786 32.344 8.75391 31.6721 8.75391H20.7703V7.08595C22.1856 6.58379 23.2019 5.23246 23.2019 3.64746C23.2019 1.63629 21.5656 0 19.5544 0C17.5433 0 15.907 1.63629 15.907 3.64746C15.907 5.23246 16.9233 6.58379 18.3386 7.08595V9.96973C18.3386 10.6416 18.8826 11.1855 19.5544 11.1855H30.4563V13.6172H3.74371C1.67935 13.6172 0 15.2965 0 17.3609V64.1801C0 66.2445 1.67935 67.9238 3.74371 67.9238H30.103C29.6325 72.3837 26.6835 74.9883 25.7539 75.7051H20.5879C18.5767 75.7051 16.9404 77.3414 16.9404 79.3525C16.9404 81.3637 18.5767 83 20.5879 83H62.4121C64.4233 83 66.0596 81.3637 66.0596 79.3525C66.0596 77.3414 64.4233 75.7051 62.4121 75.7051H57.2493C56.3317 74.9908 53.3726 72.3628 52.8983 67.9238H79.2563C81.3206 67.9238 83 66.2445 83 64.1801V17.3609C83 15.2965 81.3206 13.6172 79.2563 13.6172ZM63.4456 2.43164C64.1162 2.43164 64.6614 2.97686 64.6614 3.64746C64.6614 4.31806 64.1162 4.86328 63.4456 4.86328C62.775 4.86328 62.2297 4.31806 62.2297 3.64746C62.2297 2.97686 62.775 2.43164 63.4456 2.43164ZM41.5 2.43164C42.1706 2.43164 42.7158 2.97686 42.7158 3.64746C42.7158 4.31806 42.1706 4.86328 41.5 4.86328C40.8294 4.86328 40.2842 4.31806 40.2842 3.64746C40.2842 2.97686 40.8294 2.43164 41.5 2.43164ZM19.5544 2.43164C20.225 2.43164 20.7703 2.97686 20.7703 3.64746C20.7703 4.31806 20.225 4.86328 19.5544 4.86328C18.8838 4.86328 18.3386 4.31806 18.3386 3.64746C18.3386 2.97686 18.8838 2.43164 19.5544 2.43164ZM32.8879 20.9121H40.2842V22.739L32.8879 26.2731V20.9121ZM54.4042 31.0186L41.5 37.1832L28.5958 31.0186L41.5 24.8534L54.4042 31.0186ZM26.9912 32.9468L40.2842 39.2976V56.4312L26.9912 50.0804V32.9468ZM50.1121 26.2731L42.7158 22.739V20.9121H50.1121V26.2731ZM50.1121 16.0488V18.4805H42.7158V16.0488H50.1121ZM40.2842 16.0488V18.4805H32.8879V16.0488H40.2842ZM63.6279 79.3525C63.6279 80.0231 63.0827 80.5684 62.4121 80.5684H20.5879C19.9173 80.5684 19.3721 80.0231 19.3721 79.3525C19.3721 78.6819 19.9173 78.1367 20.5879 78.1367H62.4121C63.0827 78.1367 63.6279 78.6819 63.6279 79.3525ZM53.7621 75.7051H29.2379C30.6634 74.0403 32.2446 71.4459 32.5479 67.9238H50.4521C50.7554 71.4459 52.3366 74.0403 53.7621 75.7051Z" fill="#515151"/>
</svg>
