<svg width="111" height="83" viewBox="0 0 111 83" fill="none" xmlns="http://www.w3.org/2000/svg">
<path d="M47.0866 65.7428H50.5468V68.9871H47.0866V65.7428Z" fill="#515151"/>
<path d="M54.0069 65.7428H57.467V68.9871H54.0069V65.7428Z" fill="#515151"/>
<path d="M60.9272 65.7428H64.3873V68.9871H60.9272V65.7428Z" fill="#515151"/>
<path d="M5.56476 8.65039H9.02491V11.8947H5.56476V8.65039Z" fill="#515151"/>
<path d="M15.9453 15.5707H33.246V18.815H15.9453V15.5707Z" fill="#515151"/>
<path d="M5.56476 15.5707H9.02491V18.815H5.56476V15.5707Z" fill="#515151"/>
<path d="M36.7061 15.5707H43.6264V18.815H36.7061V15.5707Z" fill="#515151"/>
<path d="M28.0558 22.491H43.6265V25.7353H28.0558V22.491Z" fill="#515151"/>
<path d="M15.9453 22.491H24.5956V25.7353H15.9453V22.491Z" fill="#515151"/>
<path d="M5.56476 22.491H9.02491V25.7353H5.56476V22.491Z" fill="#515151"/>
<path d="M15.9453 8.65039H29.7858V11.8947H15.9453V8.65039Z" fill="#515151"/>
<path d="M15.9453 29.4113H33.246V32.6556H15.9453V29.4113Z" fill="#515151"/>
<path d="M5.56476 29.4113H9.02491V32.6556H5.56476V29.4113Z" fill="#515151"/>
<path d="M36.7061 29.4113H43.6264V32.6556H36.7061V29.4113Z" fill="#515151"/>
<path d="M15.9453 36.3315H22.8655V39.5759H15.9453V36.3315Z" fill="#515151"/>
<path d="M5.56476 36.3315H9.02491V39.5759H5.56476V36.3315Z" fill="#515151"/>
<path d="M26.3257 36.3315H36.7061V39.5759H26.3257V36.3315Z" fill="#515151"/>
<path d="M15.9453 43.2518H26.3257V46.4961H15.9453V43.2518Z" fill="#515151"/>
<path d="M5.56476 43.2518H9.02491V46.4961H5.56476V43.2518Z" fill="#515151"/>
<path d="M29.7858 43.2518H43.6264V46.4961H29.7858V43.2518Z" fill="#515151"/>
<path d="M110.883 55.1465V0H59.1971V13.6248H107.639V51.9022H62.4414V17.0849H59.1971V27.6812H52.061V0H0.374573V55.1465H52.061V30.9255H59.1971V55.1465H92.0685V72.6631H63.7162L61.9861 74.3932H49.4886L47.7585 72.6631H19.1896V58.6067H15.9452V72.6631H12.4851V79.3676C12.4851 81.2157 14.0971 82.8277 15.9452 82.8277H95.5287C97.3776 82.8277 98.773 81.2157 98.773 79.3676V72.6631H95.3128V55.1465H110.883ZM62.4414 10.3804V3.24431H107.639V10.3804H62.4414ZM3.61888 3.24431H10.755V51.9022H3.61888V3.24431ZM48.8167 51.9022H13.9993V3.24431H48.8167V51.9022ZM95.5287 79.3676C95.5287 79.4266 95.5885 79.5834 95.5287 79.5834H15.9452C15.8862 79.5834 15.7294 79.4266 15.7294 79.3676V75.9074H46.4155L48.1455 77.6375H63.3292L65.0593 75.9074H95.5287V79.3676Z" fill="#515151"/>
<path d="M67.8475 5.19019H71.3076V8.4345H67.8475V5.19019Z" fill="#515151"/>
<path d="M74.7678 5.19019H78.2279V8.4345H74.7678V5.19019Z" fill="#515151"/>
<path d="M81.6881 5.19019H85.1483V8.4345H81.6881V5.19019Z" fill="#515151"/>
<path d="M66.1174 30.9255H103.963V17.3008H66.1174V30.9255ZM69.3617 20.5451H100.719V27.6812H69.3617V20.5451Z" fill="#515151"/>
<path d="M66.1174 48.2262H79.7422V34.6014H66.1174V48.2262ZM69.3617 37.8458H76.4979V44.9819H69.3617V37.8458Z" fill="#515151"/>
<path d="M83.4182 34.6014H104.179V37.8458H83.4182V34.6014Z" fill="#515151"/>
<path d="M83.4182 39.7917H104.179V43.0361H83.4182V39.7917Z" fill="#515151"/>
<path d="M83.4182 44.9819H104.179V48.2262H83.4182V44.9819Z" fill="#515151"/>
</svg>
