<svg width="83" height="83" viewBox="0 0 83 83" fill="none" xmlns="http://www.w3.org/2000/svg">
<g clip-path="url(#clip0)">
<path d="M63.8062 63.6333H61.0395V69.1666H36.1395V71.9333H61.0395V76.0833C61.0395 78.3751 59.1813 80.2333 56.8895 80.2333H26.4561C24.9735 80.2313 23.6037 79.441 22.8593 78.1583L20.4635 79.5416C21.7036 81.6781 23.986 82.9952 26.4561 82.9999H56.8895C60.7078 82.9952 63.8014 79.9016 63.8062 76.0833V63.6333Z" fill="#515151"/>
<path d="M40.2896 74.7H43.0562V77.4666H40.2896V74.7Z" fill="#515151"/>
<path d="M48.5895 37.35V34.5833H44.3693C43.6797 25.7558 36.6671 18.7432 27.8395 18.0536V13.8333H25.0729V18.0536C24.1407 18.1252 23.216 18.2697 22.3062 18.4852V11.0667H44.4395V8.3H22.3062V6.91667C22.3062 4.62485 24.1644 2.76667 26.4562 2.76667H56.8895C57.9 2.76667 58.8761 3.13547 59.6339 3.80417L61.4644 1.72917C60.2013 0.61399 58.5741 -0.0006749 56.8895 5.56102e-07H26.4562C22.6379 0.00472875 19.5443 3.09832 19.5395 6.91667V19.3667C13.3105 21.976 9.06525 27.8504 8.54312 34.5833H4.32288V37.35H8.5465C9.19899 46.1944 16.2285 53.2286 25.0729 53.8865V58.1H27.8395V53.8865C36.684 53.2286 43.7134 46.1944 44.3659 37.35H48.5895ZM25.0729 48.4167V51.1198C23.1431 50.9462 21.2653 50.4039 19.5395 49.5231V47.0333C19.5395 43.2136 22.6365 40.1167 26.4562 40.1167C30.2759 40.1167 33.3729 43.2136 33.3729 47.0333V49.5231C31.6478 50.4052 29.7693 50.9483 27.8395 51.1239V48.4167H25.0729ZM22.3062 33.2C22.3062 30.9082 24.1644 29.05 26.4562 29.05C28.748 29.05 30.6062 30.9082 30.6062 33.2C30.6062 35.4918 28.748 37.35 26.4562 37.35C24.1644 37.35 22.3062 35.4918 22.3062 33.2ZM36.6002 47.3103C36.4509 47.4481 36.2915 47.5588 36.1395 47.6865V47.0333C36.1362 43.4196 34.1206 40.1086 30.9122 38.4456C33.1344 36.5739 33.9497 33.5127 32.9534 30.7839C31.9571 28.0544 29.3613 26.2388 26.4562 26.2388C23.5511 26.2388 20.9553 28.0544 19.959 30.7839C18.9627 33.5127 19.778 36.5739 22.0002 38.4456C18.7918 40.1086 16.7763 43.4196 16.7729 47.0333V47.6933C16.6195 47.5676 16.4601 47.4494 16.3122 47.317C13.4456 44.7462 11.659 41.1852 11.3132 37.35H14.0062V34.5833H11.3098C11.9859 27.2803 17.7698 21.4964 25.0729 20.8202V23.5167H27.8395V20.8202C35.1426 21.4964 40.9265 27.2803 41.6026 34.5833H38.9062V37.35H41.5993C41.2534 41.1852 39.4668 44.7462 36.6002 47.317V47.3103Z" fill="#515151"/>
<path d="M79.0228 24.9C79.7868 24.9 80.4062 24.2806 80.4062 23.5167V6.91666C80.4062 6.15272 79.7868 5.53333 79.0228 5.53333H48.5895C47.8256 5.53333 47.2062 6.15272 47.2062 6.91666V23.5167C47.2062 24.2806 47.8256 24.9 48.5895 24.9H79.0228ZM49.9728 8.29999H77.6395V22.1333H49.9728V8.29999Z" fill="#515151"/>
<path d="M52.7395 11.0667H58.2728V13.8333H52.7395V11.0667Z" fill="#515151"/>
<path d="M61.0396 11.0667H74.8729V13.8333H61.0396V11.0667Z" fill="#515151"/>
<path d="M52.7395 16.6H74.8728V19.3666H52.7395V16.6Z" fill="#515151"/>
<path d="M78.7783 27.6666C77.7071 27.6687 76.6736 28.0618 75.8732 28.773L63.8062 39.4115V27.6666H61.0395V41.5H61.4394L53.5697 48.4443C48.4497 48.7375 44.4456 52.9712 44.4395 58.1V60.5404C44.4449 61.9129 43.6688 63.1699 42.4381 63.7785C41.8633 64.0649 41.5614 64.7093 41.7087 65.3341C41.8559 65.9589 42.4138 66.4006 43.0562 66.4H52.7395C57.8682 66.3939 62.102 62.3898 62.3952 57.2698L82.0746 34.9676C83.2168 33.6721 83.4944 31.8274 82.7831 30.2529C82.0725 28.6785 80.5055 27.6666 78.7783 27.6666ZM52.7395 63.6333H46.4132C46.9353 62.6863 47.2082 61.6218 47.2062 60.5404V58.1C47.2109 54.4964 49.9776 51.4981 53.5697 51.2056L59.6339 57.2698C59.3421 60.8619 56.3431 63.6292 52.7395 63.6333ZM79.9996 33.1378L60.9774 54.697L56.1425 49.8635L77.7017 30.8399C78.3467 30.2739 79.32 30.3056 79.9273 30.9122C80.5338 31.5194 80.5656 32.4928 79.9996 33.1378Z" fill="#515151"/>
<path d="M1.55618 76.0834H31.9895C32.7535 76.0834 33.3728 75.464 33.3728 74.7V63.6334C33.3728 62.8694 32.7535 62.25 31.9895 62.25H22.3062V55.3334H19.5395V62.25H1.55618C0.792244 62.25 0.172852 62.8694 0.172852 63.6334V74.7C0.172852 75.464 0.792244 76.0834 1.55618 76.0834ZM2.93952 65.0167H30.6062V73.3167H2.93952V65.0167Z" fill="#515151"/>
<path d="M5.70618 67.7833H12.6228V70.55H5.70618V67.7833Z" fill="#515151"/>
<path d="M15.3895 67.7833H27.8395V70.55H15.3895V67.7833Z" fill="#515151"/>
<path d="M1.55618 19.3667H15.3895C16.1535 19.3667 16.7729 18.7473 16.7729 17.9833V6.91666C16.7729 6.15272 16.1535 5.53333 15.3895 5.53333H1.55618C0.792244 5.53333 0.172852 6.15272 0.172852 6.91666V17.9833C0.172852 18.7473 0.792244 19.3667 1.55618 19.3667ZM2.93952 8.29999H14.0062V16.6H2.93952V8.29999Z" fill="#515151"/>
<path d="M5.70618 11.0667H11.2395V13.8333H5.70618V11.0667Z" fill="#515151"/>
</g>
<defs>
<clipPath id="clip0">
<rect width="83" height="83" fill="white"/>
</clipPath>
</defs>
</svg>
