<svg width="639" height="56" viewBox="0 0 639 56" fill="none" xmlns="http://www.w3.org/2000/svg">
<rect width="639" height="56" rx="15" fill="#FAFAFF"/>
<path d="M34.098 34C33.834 33.556 33.528 33.058 33.18 32.506C32.844 31.954 32.478 31.384 32.082 30.796C31.686 30.196 31.272 29.59 30.84 28.978C30.42 28.366 30 27.778 29.58 27.214C29.16 26.638 28.752 26.098 28.356 25.594C27.96 25.09 27.594 24.646 27.258 24.262V34H25.548V21.526H26.934C27.498 22.126 28.098 22.828 28.734 23.632C29.382 24.424 30.018 25.246 30.642 26.098C31.278 26.938 31.872 27.766 32.424 28.582C32.988 29.398 33.462 30.124 33.846 30.76V21.526H35.556V34H34.098ZM41.7037 32.794C42.0997 32.794 42.4477 32.788 42.7477 32.776C43.0597 32.752 43.3177 32.716 43.5217 32.668V29.878C43.4017 29.818 43.2037 29.77 42.9277 29.734C42.6637 29.686 42.3397 29.662 41.9557 29.662C41.7037 29.662 41.4337 29.68 41.1457 29.716C40.8697 29.752 40.6117 29.83 40.3717 29.95C40.1437 30.058 39.9517 30.214 39.7957 30.418C39.6397 30.61 39.5617 30.868 39.5617 31.192C39.5617 31.792 39.7537 32.212 40.1377 32.452C40.5217 32.68 41.0437 32.794 41.7037 32.794ZM41.5597 24.406C42.2317 24.406 42.7957 24.496 43.2517 24.676C43.7197 24.844 44.0917 25.09 44.3677 25.414C44.6557 25.726 44.8597 26.104 44.9797 26.548C45.0997 26.98 45.1597 27.46 45.1597 27.988V33.838C45.0157 33.862 44.8117 33.898 44.5477 33.946C44.2957 33.982 44.0077 34.018 43.6837 34.054C43.3597 34.09 43.0057 34.12 42.6217 34.144C42.2497 34.18 41.8777 34.198 41.5057 34.198C40.9777 34.198 40.4917 34.144 40.0477 34.036C39.6037 33.928 39.2197 33.76 38.8957 33.532C38.5717 33.292 38.3197 32.98 38.1397 32.596C37.9597 32.212 37.8697 31.75 37.8697 31.21C37.8697 30.694 37.9717 30.25 38.1757 29.878C38.3917 29.506 38.6797 29.206 39.0397 28.978C39.3997 28.75 39.8197 28.582 40.2997 28.474C40.7797 28.366 41.2837 28.312 41.8117 28.312C41.9797 28.312 42.1537 28.324 42.3337 28.348C42.5137 28.36 42.6817 28.384 42.8377 28.42C43.0057 28.444 43.1497 28.468 43.2697 28.492C43.3897 28.516 43.4737 28.534 43.5217 28.546V28.078C43.5217 27.802 43.4917 27.532 43.4317 27.268C43.3717 26.992 43.2637 26.752 43.1077 26.548C42.9517 26.332 42.7357 26.164 42.4597 26.044C42.1957 25.912 41.8477 25.846 41.4157 25.846C40.8637 25.846 40.3777 25.888 39.9577 25.972C39.5497 26.044 39.2437 26.122 39.0397 26.206L38.8417 24.82C39.0577 24.724 39.4177 24.634 39.9217 24.55C40.4257 24.454 40.9717 24.406 41.5597 24.406ZM47.94 24.91C48.324 24.814 48.828 24.712 49.452 24.604C50.088 24.496 50.82 24.442 51.648 24.442C52.248 24.442 52.752 24.526 53.16 24.694C53.568 24.85 53.91 25.084 54.186 25.396C54.27 25.336 54.402 25.252 54.582 25.144C54.762 25.036 54.984 24.934 55.248 24.838C55.512 24.73 55.806 24.64 56.13 24.568C56.454 24.484 56.802 24.442 57.174 24.442C57.894 24.442 58.482 24.55 58.938 24.766C59.394 24.97 59.748 25.264 60 25.648C60.264 26.032 60.438 26.488 60.522 27.016C60.618 27.544 60.666 28.12 60.666 28.744V34H58.992V29.104C58.992 28.552 58.962 28.078 58.902 27.682C58.854 27.286 58.752 26.956 58.596 26.692C58.452 26.428 58.248 26.236 57.984 26.116C57.732 25.984 57.402 25.918 56.994 25.918C56.43 25.918 55.962 25.996 55.59 26.152C55.23 26.296 54.984 26.428 54.852 26.548C54.948 26.86 55.02 27.202 55.068 27.574C55.116 27.946 55.14 28.336 55.14 28.744V34H53.466V29.104C53.466 28.552 53.436 28.078 53.376 27.682C53.316 27.286 53.208 26.956 53.052 26.692C52.908 26.428 52.704 26.236 52.44 26.116C52.188 25.984 51.864 25.918 51.468 25.918C51.3 25.918 51.12 25.924 50.928 25.936C50.736 25.948 50.55 25.966 50.37 25.99C50.202 26.002 50.046 26.02 49.902 26.044C49.758 26.068 49.662 26.086 49.614 26.098V34H47.94V24.91ZM62.9219 29.338C62.9219 28.51 63.0419 27.79 63.2819 27.178C63.5219 26.554 63.8399 26.038 64.2359 25.63C64.6319 25.222 65.0879 24.916 65.6039 24.712C66.1199 24.508 66.6479 24.406 67.1879 24.406C68.4479 24.406 69.4139 24.802 70.0859 25.594C70.7579 26.374 71.0939 27.568 71.0939 29.176C71.0939 29.248 71.0939 29.344 71.0939 29.464C71.0939 29.572 71.0879 29.674 71.0759 29.77H64.6679C64.7399 30.742 65.0219 31.48 65.5139 31.984C66.0059 32.488 66.7739 32.74 67.8179 32.74C68.4059 32.74 68.8979 32.692 69.2939 32.596C69.7019 32.488 70.0079 32.386 70.2119 32.29L70.4459 33.694C70.2419 33.802 69.8819 33.916 69.3659 34.036C68.8619 34.156 68.2859 34.216 67.6379 34.216C66.8219 34.216 66.1139 34.096 65.5139 33.856C64.9259 33.604 64.4399 33.262 64.0559 32.83C63.6719 32.398 63.3839 31.888 63.1919 31.3C63.0119 30.7 62.9219 30.046 62.9219 29.338ZM69.3479 28.42C69.3599 27.664 69.1679 27.046 68.7719 26.566C68.3879 26.074 67.8539 25.828 67.1699 25.828C66.7859 25.828 66.4439 25.906 66.1439 26.062C65.8559 26.206 65.6099 26.398 65.4059 26.638C65.2019 26.878 65.0399 27.154 64.9199 27.466C64.8119 27.778 64.7399 28.096 64.7039 28.42H69.3479Z" fill="#A0A0A0"/>
</svg>
