<svg width="68" height="68" viewBox="0 0 68 68" fill="none" xmlns="http://www.w3.org/2000/svg">
<g clip-path="url(#clip0)">
<path d="M67.811 35.1339L60.0506 14.1575C59.7688 13.3953 59.2068 12.7886 58.4684 12.4491C57.7301 12.1096 56.9039 12.0778 56.1417 12.3599L18.3011 26.3591C17.5389 26.6411 16.9322 27.203 16.5926 27.9412C16.2531 28.6795 16.2214 29.5058 16.5034 30.2679L24.2637 51.2443C24.5456 52.0065 25.1075 52.6132 25.8459 52.9528C26.251 53.1391 26.6825 53.2326 27.1155 53.2326C27.4717 53.2326 27.8287 53.1694 28.1728 53.0421L66.0135 39.0428H66.0136C67.5865 38.4607 68.3929 36.7072 67.811 35.1339ZM54.0617 16.3732L42.3241 33.1533L22.4916 28.0526L54.0617 16.3732ZM26.5684 48.7067L19.8371 30.5113L35.4269 34.5212L26.5684 48.7067ZM29.8647 49.1723L38.5177 35.316L42.5873 36.3628C42.7136 36.3948 42.8414 36.4115 42.9661 36.4115C43.4559 36.4115 43.9245 36.1742 44.2135 35.762L46.6218 32.3163L62.2099 37.2062L29.8647 49.1723ZM48.4519 29.7021L57.6775 16.5107L64.4115 34.7085L48.4519 29.7021Z" fill="white"/>
<path d="M17.7224 51.6607C17.431 50.8727 16.5555 50.4706 15.7681 50.7618L10.0356 52.8826C9.24765 53.1742 8.84536 54.0492 9.13675 54.837C9.36386 55.451 9.94504 55.8307 10.5636 55.8307C10.7387 55.8307 10.9172 55.8002 11.0912 55.7358L16.8234 53.615C17.6116 53.3238 18.0139 52.4487 17.7224 51.6607Z" fill="white"/>
<path d="M9.96404 37.5388C9.67238 36.7508 8.79728 36.3488 8.00957 36.6399L4.47105 37.9491C3.68307 38.2407 3.28078 39.1156 3.57217 39.9035C3.79928 40.5174 4.3806 40.8972 4.99898 40.8972C5.17416 40.8972 5.35266 40.8667 5.52664 40.8023L9.06516 39.4931C9.85314 39.2019 10.2556 38.3268 9.96404 37.5388Z" fill="white"/>
<path d="M5.57751 49.0619C5.28585 48.2739 4.41075 47.8716 3.62304 48.163L0.993751 49.1357C0.205775 49.4274 -0.196514 50.3023 0.0948764 51.0902C0.321986 51.704 0.903173 52.0839 1.52168 52.0839C1.69686 52.0839 1.87536 52.0533 2.04935 51.9889L4.67863 51.0162C5.46674 50.7248 5.86903 49.8498 5.57751 49.0619Z" fill="white"/>
</g>
<defs>
<clipPath id="clip0">
<rect width="68" height="68" fill="white"/>
</clipPath>
</defs>
</svg>
